<svg width="200" height="200" viewBox="0 0 200 200" fill="none" xmlns="http://www.w3.org/2000/svg">
<g clip-path="url(#clip0)">
<path fill-rule="evenodd" clip-rule="evenodd" d="M102 0C102 -1.10457 101.105 -2 100 -2C98.8955 -2 98 -1.10457 98 0C98 35.8489 93.0882 65.2713 79.6412 88.2452C77.9239 91.179 76.0651 94.0117 74.0559 96.7425C59.8396 79.4318 39.3125 66.5149 10.563 58.0809C9.50313 57.7699 8.39184 58.3771 8.08091 59.437C7.76998 60.4969 8.37713 61.6082 9.43704 61.9191C37.9584 70.2862 57.9039 83.0498 71.5485 100C57.9039 116.95 37.9584 129.714 9.43704 138.081C8.37713 138.392 7.76998 139.503 8.08091 140.563C8.39184 141.623 9.50313 142.23 10.563 141.919C39.3125 133.485 59.8396 120.568 74.0559 103.257C76.0651 105.988 77.9239 108.821 79.6412 111.755C93.0882 134.729 98 164.151 98 200C98 201.105 98.8955 202 100 202C101.105 202 102 201.105 102 200C102 164.151 106.912 134.729 120.359 111.755C122.076 108.821 123.935 105.988 125.944 103.257C140.16 120.568 160.688 133.485 189.437 141.919C190.497 142.23 191.608 141.623 191.919 140.563C192.23 139.503 191.623 138.392 190.563 138.081C162.042 129.714 142.096 116.95 128.452 100C142.096 83.0498 162.042 70.2862 190.563 61.9191C191.623 61.6082 192.23 60.4969 191.919 59.437C191.608 58.3771 190.497 57.7699 189.437 58.0809C160.688 66.5149 140.16 79.4318 125.944 96.7425C123.935 94.0117 122.076 91.179 120.359 88.2452C106.912 65.2713 102 35.8489 102 0ZM123.382 100C121.039 96.8884 118.884 93.6435 116.907 90.2658C107.836 74.7692 102.575 56.5814 100 35.8463C97.4246 56.5814 92.1637 74.7692 83.0933 90.2658C81.1162 93.6435 78.9612 96.8884 76.6181 100C78.9612 103.112 81.1162 106.356 83.0933 109.734C92.1637 125.231 97.4246 143.419 100 164.154C102.575 143.419 107.836 125.231 116.907 109.734C118.884 106.356 121.039 103.112 123.382 100Z" fill="#8BD4A0"/>
</g>
<defs>
<clipPath id="clip0">
<rect width="200" height="200" fill="white"/>
</clipPath>
</defs>
</svg>
