<svg width="184" height="204" viewBox="0 0 184 204" fill="none" xmlns="http://www.w3.org/2000/svg">
<path fill-rule="evenodd" clip-rule="evenodd" d="M94.0005 2C94.0005 0.89543 93.1051 0 92.0005 0C90.896 0 90.0005 0.89543 90.0005 2C90.0005 37.8489 85.0887 67.2713 71.6416 90.2452C69.9244 93.179 68.0656 96.0117 66.0564 98.7425C51.8401 81.4318 31.313 68.5149 2.56352 60.0809C1.50362 59.7699 0.392332 60.3771 0.081398 61.437C-0.229536 62.4969 0.377622 63.6082 1.43753 63.9191C29.9589 72.2862 49.9043 85.0498 63.549 102C49.9043 118.95 29.9589 131.714 1.43753 140.081C0.377622 140.392 -0.229536 141.503 0.081398 142.563C0.392332 143.623 1.50362 144.23 2.56352 143.919C31.313 135.485 51.8401 122.568 66.0564 105.257C68.0656 107.988 69.9244 110.821 71.6416 113.755C85.0887 136.729 90.0005 166.151 90.0005 202C90.0005 203.105 90.896 204 92.0005 204C93.1051 204 94.0005 203.105 94.0005 202C94.0005 166.151 98.9124 136.729 112.359 113.755C114.077 110.821 115.935 107.988 117.945 105.257C132.161 122.568 152.688 135.485 181.438 143.919C182.497 144.23 183.609 143.623 183.92 142.563C184.231 141.503 183.623 140.392 182.564 140.081C154.042 131.714 134.097 118.95 120.452 102C134.097 85.0498 154.042 72.2862 182.564 63.9191C183.623 63.6082 184.231 62.4969 183.92 61.437C183.609 60.3771 182.497 59.7699 181.438 60.0809C152.688 68.5149 132.161 81.4318 117.945 98.7425C115.935 96.0117 114.077 93.179 112.359 90.2452C98.9124 67.2713 94.0005 37.8489 94.0005 2ZM115.382 102C113.039 98.8884 110.884 95.6435 108.907 92.2658C99.8369 76.7692 94.576 58.5814 92.0005 37.8463C89.4251 58.5814 84.1642 76.7692 75.0938 92.2658C73.1167 95.6435 70.9617 98.8884 68.6185 102C70.9617 105.112 73.1167 108.356 75.0938 111.734C84.1642 127.231 89.4251 145.419 92.0005 166.154C94.576 145.419 99.8369 127.231 108.907 111.734C110.884 108.356 113.039 105.112 115.382 102Z" fill="white"/>
</svg>
